<svg width="64px" height="64px" viewBox="0 0 64 64" xmlns="http://www.w3.org/2000/svg"><path d="M32 0C14.354 0 0 14.354 0 32s14.354 32 32 32 32 -14.354 32 -32S49.646 0 32 0m0 3.054c15.99 0 28.946 12.958 28.946 28.946S47.988 60.946 32 60.946 3.054 47.988 3.054 32 16.012 3.054 32 3.054m-9.678 12.592c-0.376 -0.01 -0.75 0 -1.136 0.01 -2.614 0.158 -4.186 1.386 -4.624 3.928 -0.302 1.782 -0.25 3.592 -0.376 5.384a18 18 0 0 1 -0.312 2.76c-0.354 1.626 -1.05 2.136 -2.706 2.218q-0.334 0.036 -0.648 0.114v3.896c3 0.146 3.408 1.21 3.646 4.344 0.096 1.146 -0.03 2.294 0.042 3.438q0.084 1.632 0.416 3.2c0.688 2.864 3.49 3.822 6.866 3.248V44.76c-0.544 0 -1.022 0.01 -1.48 0 -1.158 -0.032 -1.584 -0.322 -1.688 -1.426 -0.158 -1.426 -0.114 -2.874 -0.198 -4.312 -0.178 -2.678 -0.47 -5.302 -3.082 -7 1.344 -0.99 2.322 -2.168 2.624 -3.73 0.218 -1.094 0.354 -2.198 0.438 -3.302s-0.05 -2.24 0.042 -3.334c0.154 -1.77 0.27 -2.498 2.394 -2.426 0.322 0 0.634 -0.042 0.99 -0.072V15.668c-0.426 0 -0.822 -0.01 -1.208 -0.022m20.252 0.032a10.8 10.8 0 0 0 -2.178 0.158v3.394c0.658 0 1.168 0 1.666 0.01 0.878 0.01 1.544 0.354 1.626 1.322 0.082 0.886 0.082 1.782 0.166 2.678 0.178 1.792 0.272 3.592 0.584 5.354 0.272 1.448 1.272 2.53 2.51 3.426 -2.176 1.458 -2.822 3.552 -2.926 5.906 -0.064 1.602 -0.104 3.23 -0.186 4.854 -0.074 1.48 -0.594 1.958 -2.086 1.99 -0.416 0.022 -0.822 0.054 -1.28 0.082v3.48c0.864 0 1.666 0.054 2.47 0 2.478 -0.146 3.99 -1.354 4.478 -3.77a30 30 0 0 0 0.366 -4.01c0.082 -1.23 0.072 -2.47 0.198 -3.688 0.186 -1.906 1.064 -2.698 2.968 -2.822q0.266 -0.036 0.534 -0.114v-3.906c-0.322 -0.042 -0.542 -0.074 -0.782 -0.082 -1.426 -0.064 -2.136 -0.544 -2.502 -1.896a13.2 13.2 0 0 1 -0.394 -2.648c-0.104 -1.646 -0.094 -3.312 -0.198 -4.958 -0.218 -3.176 -2.126 -4.678 -5.032 -4.76zm-18.376 14.072c-2.864 0 -3.072 4.218 -0.23 4.49h0.158a2.206 2.206 0 0 0 2.334 -2.074v-0.122a2.26 2.26 0 0 0 -2.208 -2.294zm7.76 0a2.166 2.166 0 0 0 -2.23 2.086c0 0.072 0 0.134 0.01 0.208 0 1.344 0.918 2.198 2.294 2.198 1.354 0 2.208 -0.886 2.208 -2.272 -0.01 -1.344 -0.918 -2.23 -2.282 -2.218zm7.896 0a2.3 2.3 0 0 0 -2.334 2.23c0 1.25 1.01 2.262 2.272 2.262h0.022c1.134 0.198 2.27 -0.896 2.344 -2.208 0.062 -1.218 -1.042 -2.282 -2.304 -2.282z"/></svg>